<?xml version="1.0" encoding="utf-8"?>
<!-- Generator: Adobe Illustrator 24.0.1, SVG Export Plug-In . SVG Version: 6.00 Build 0)  -->
<svg version="1.1" xmlns="http://www.w3.org/2000/svg" xmlns:xlink="http://www.w3.org/1999/xlink" x="0px" y="0px"
	 viewBox="0 0 1000 1000" style="enable-background:new 0 0 1000 1000;" xml:space="preserve">
<style type="text/css">
	.st0{fill:none;}
	.st1{fill:#FDFDFD;}
	.st2{fill:#CEB08E;}
	.st3{fill:#E08488;}
	.st4{fill:#B38F68;}
	.st5{fill:#49642F;}
	.st6{fill:#668137;}
	.st7{fill:#CD8C50;}
	.st8{fill:#B33B3B;}
	.st9{fill:#9F8569;}
	.st10{fill:#AA6D2E;}
	.st11{fill:#C5A179;}
	.st12{fill:#DABFA0;}
	.st13{fill:#BC8245;}
	.st14{fill:#C5A178;}
	.st15{fill:#98B65D;}
	.st16{fill:#E68A50;}
	.st17{fill:#BE7340;}
	.st18{fill:#86A867;}
	.st19{fill:#DDAA49;}
	.st20{fill:#4A6530;}
	.st21{fill:#4B6631;}
	.st22{fill:#4A642F;}
	.st23{fill:#F5E4D3;}
	.st24{fill:#87A867;}
	.st25{fill:#557036;}
	.st26{fill:#526734;}
	.st27{fill:#5D773A;}
	.st28{fill:#D4965D;}
	.st29{fill:#BF7645;}
	.st30{fill:#E8D2BD;}
	.st31{fill:#E9D4C0;}
	.st32{fill:#E5C9AF;}
	.st33{fill:#DDB58F;}
	.st34{fill:#E08489;}
	.st35{fill:#597538;}
</style>
<g id="Layer_1">
</g>
<g id="Layer_2">
	<g>
		<path class="st0" d="M1000,4.6c0-3.8-0.8-4.6-4.6-4.6C665.1,0.1,334.9,0.1,4.6,0C0.8,0,0,0.8,0,4.6c0.1,330.3,0.1,660.6,0,990.8
			c0,3.8,0.8,4.6,4.6,4.6c330.3-0.1,660.5-0.1,990.8,0c3.8,0,4.6-0.8,4.6-4.6c-0.1-165.1-0.1-330.3-0.1-495.4S999.9,169.7,1000,4.6z
			 M772.1,744.3c-3.1,29.6-6.5,59.1-10.3,88.7c-2.6,20.5-6.3,40.7-14.8,59.8c-8.7,19.5-24.2,29.4-44.8,32.1
			c-28.4,3.7-56.8,1.6-85.2-0.7c-21.7-1.8-43.3-4.3-64.9-7.2c-27.5-3.6-54.9-7.9-82.3-12.6c-15.7-2.7-31.5-5.4-47.1-8.5
			c-7.8-1.6-15.5-4-22.6-7.7c-8.9-4.5-14.7-11.7-17.1-21.6c-0.9-3.5-2-7-3-10.5c-16.5-6.6-33.1-13.1-49.6-19.7
			c-39.5-15.9-79-32-118.4-48c-8.1-3.3-8-3.3-8-11.9c0.1-41.8,0.1-83.7,0.2-125.5c0.1-47.7-0.3-95.3,0.3-143
			c1-77,0.3-153.9,0.8-230.9c0-7,0.8-7.3,8-6.5c5.3,0.6,10.5,3,16,1.3c-9-40.1-17.3-80.3-23.5-121c-3.1-20.6-5.6-41.2-6.2-62
			c-0.2-7,0.6-13.9,1.5-20.9c3.4-27,34.6-33.7,52-20.8c6.8,5.1,12.5,11.1,16.4,18.5c8.1,15.1,14.5,30.9,20.2,47.2
			c4.9,14.1,8.9,28.5,13.8,42.6c2.3,6.6,3.1,13.6,5.9,20.1c4.1,0.4,7.7,2,11,4.4c4.8,3.5,9.4,3.3,14.1-0.4c3.8-3,7.8-5.6,11.9-8.2
			c3.1-1.9,6.6-3,10.3-3.6c10.4-1.6,16.7,2.2,19.5,12.4c1.8,6.5,4,12.7,9.1,17.4c1,0.9,1.5,2.2,3.6,1.2c14-6.7,19.1-5.5,29.3,6.2
			c7.8-7.7,15.7-15,27.5-15.2c14.5-0.2,24.9,7.1,33.3,18c6.6,8.6,11.2,18.5,16.1,28.1c0.8,1.6,1.2,3.5,3,4.4
			c39.2-17.2,76.7,15,81.2,48.2c1.5,11.1,1.5,22.2,0.1,33.3c6.1,5.5,10.2,12.1,12.1,20.1c12.9,2.4,25.8,4.8,38.7,7
			c4.4,0.7,6.2,2.4,6.1,7.1c-1.2,50.4-2.3,100.8-3.5,151.2c-0.5,19.3-1.1,38.6-1.6,57.8c0,1.7-0.7,3.7,0.8,5.2
			c21.8-18.9,46.4-22.3,72.7-12.2c31.8,12.2,54.7,33.7,64.6,67.2c2.8,9.4,3.1,19,1.4,28.7C776.8,683.9,775.3,714.1,772.1,744.3z"/>
		<path class="st1" d="M770.7,653.9c1.7-9.7,1.3-19.3-1.4-28.7c-9.9-33.5-32.7-55-64.6-67.2c-26.3-10.1-51-6.7-72.7,12.2
			c-1.5-1.5-0.9-3.5-0.8-5.2c0.5-19.3,1.1-38.6,1.6-57.8c1.2-50.4,2.2-100.8,3.5-151.2c0.1-4.7-1.7-6.4-6.1-7.1
			c-12.9-2.1-25.8-4.6-38.7-7c-1.9-8-6-14.6-12.1-20.1c1.3-11.1,1.4-22.2-0.1-33.3c-4.5-33.3-42-65.4-81.2-48.2
			c-1.9-0.9-2.2-2.8-3-4.4c-4.9-9.6-9.5-19.5-16.1-28.1c-8.4-10.9-18.8-18.3-33.3-18c-11.9,0.2-19.8,7.6-27.5,15.2
			c-10.2-11.7-15.3-12.8-29.3-6.2c-2.1,1-2.6-0.3-3.6-1.2c-5.1-4.7-7.3-10.8-9.1-17.4c-2.8-10.2-9.2-14-19.5-12.4
			c-3.6,0.6-7.2,1.7-10.3,3.6c-4.1,2.5-8.1,5.2-11.9,8.2c-4.7,3.7-9.3,3.9-14.1,0.4c-3.3-2.4-6.9-4-11-4.4
			c-2.9-6.4-3.6-13.5-5.9-20.1c-4.9-14.1-8.9-28.5-13.8-42.6c-5.7-16.2-12.1-32-20.2-47.2c-4-7.4-9.7-13.5-16.4-18.5
			c-17.4-12.9-48.6-6.2-52,20.8c-0.9,7-1.7,13.9-1.5,20.9c0.6,20.8,3,41.5,6.2,62c6.2,40.7,14.6,80.9,23.5,121
			c-5.5,1.7-10.7-0.7-16-1.3c-7.3-0.8-8-0.5-8,6.5c-0.5,77,0.3,153.9-0.8,230.9c-0.6,47.6-0.3,95.3-0.3,143
			c-0.1,41.8-0.1,83.7-0.2,125.5c0,8.6-0.1,8.6,8,11.9c39.5,16,79,32,118.4,48c16.5,6.6,33.1,13.1,49.6,19.7c1,3.5,2.2,7,3,10.5
			c2.4,9.8,8.2,17,17.1,21.6c7.1,3.6,14.8,6.1,22.6,7.7c15.6,3.1,31.4,5.8,47.1,8.5c27.4,4.7,54.8,9,82.3,12.6
			c21.6,2.8,43.2,5.4,64.9,7.2c28.4,2.3,56.8,4.3,85.2,0.7c20.7-2.7,36.1-12.5,44.8-32.1c8.5-19.1,12.2-39.4,14.8-59.8
			c3.8-29.5,7.2-59.1,10.3-88.7C775.3,714.1,776.8,683.9,770.7,653.9z M469.5,251c-3.1,1.6-6.1,3.2-9.2,4.9
			c-0.4,0.2-0.8,0.4-1.2,0.6c-3.2-3.3-3.6-7.2-2.2-11.5c1.4-4.5,3.2-9,3.3-13.9c0.4,0.5,0.8,1,1.2,1.5v0c4.1,5.5,6,12,8.5,18.2
			C469.7,251,469.6,251,469.5,251z"/>
		<path class="st2" d="M496.9,361.1c-1.5,5.4-1.3,10.9-1.3,16.3c0,56.9,0,113.7,0,170.6c0,3,0.3,6-0.6,8.9c-0.1,0.4-0.3,0.7-0.5,0.9
			c-0.1,0.1-0.2,0.3-0.3,0.4c-0.5,0.6-1.3,1-2.1,1.2c-6.2,1.2-11.9,3.9-17.9,5.7c-0.5-0.1-1-0.2-1.5-0.3c-0.2,0-0.5-0.1-0.7-0.1
			c-5.5-1-11-1.9-16.7,0.4c-3.7,1.5-6.6,4.3-10.2,5.9c0,0-0.1,0-0.1,0c-0.2,0.1-0.4,0.1-0.6,0.2c-2.8,0.9-5.6,1.8-8.5,2.3
			c-3.8,0.6-4.9,2.6-4.1,6.3c1.1,4.6,2.9,9.2,2.2,14.1c0,0,0,0,0,0.1c0,0-0.1,0.1-0.2,0.1c-2.2,1.4-4.1,0-5.8-1.1
			c-12.9-7.6-20.7-2.9-28.5,5.6c-0.8,0.8-1.4,1.8-2.4,2.5c-0.1,0.1-0.1,0.1-0.2,0.2c-0.2,0.1-0.4,0.3-0.6,0.4
			c-4.3,0.6-8.5-0.4-12.8-0.8c-0.3-0.3-0.6-0.6-1-0.9c0,0,0,0-0.1-0.1c-5.1-4.5-10.7-7.7-17.7-8.7c-4.9-0.7-5.6-2.7-2.7-6.8
			c7.5-10.8,15.5-21.3,23-32c20.4-28.8,41.2-57.4,60.2-87.2c3.1-4.9,5.8-10.1,7.7-15.7c2.1-6.1-0.2-12.3-5.9-16.6
			c-5.8-4.4-13-5-18.1-1.3c-6,4.3-11.1,9.7-15.8,15.3c-43,50.6-85.5,101.8-125.4,154.9c-24.3,32.4-45.8,66.7-67.4,101
			c-3.5,5.6-7,11.4-7.9,18.2c-1.1,7.9,3.5,14.5,10.9,16.1c4,0.8,7.2-0.8,10.2-2.9c9-6.2,16.2-14.3,23.5-22.3
			c10.3-11.1,20.2-22.6,30.3-33.8c7-7.8,13.9-15.7,20.8-23.6c2.1-2.4,4.2-4.7,6.7-6.6c0.4-0.3,0.9-0.7,1.3-1
			c0.2-0.2,0.5-0.3,0.7-0.5c3.1-4.1,4.5-9.2,7.7-13.2c1-1.3,1.8-3.8,4-2.8c0,0,0,0,0.1,0c0.1,0,0.1,0.1,0.2,0.1
			c1.3,0.8,1,2.9,0.6,4.4c-1.8,6.8,1.2,13,2.4,19.5c0,0.2,0,0.3,0.1,0.5c0,0.2,0,0.5,0,0.7c0.1,8.3-1.6,16.4-2.2,24.6
			c-1.1,13.7-2.4,27.5-2.5,41.3c-0.3,30.6-0.1,61.2-0.1,91.8c0,2,0,4,0,6c-0.3,8.7-0.3,8.7,8,12c12.8,5.1,25.6,10.3,38.4,15.6
			c1.1,0.5,2.2,0.8,3.3,1.4c0.6,0.3,1.1,0.6,1.6,1c0.2,0.1,0.3,0.2,0.5,0.4c1.4,2.1,2.6,4.3,0.7,6.7c-16.5-6.6-33.1-13.1-49.6-19.7
			c-39.5-15.9-79-32-118.4-48c-8.1-3.3-8-3.3-8-11.9c0.1-41.8,0.1-83.7,0.2-125.5c0.1-47.7-0.3-95.3,0.3-143
			c1-77,0.3-153.9,0.8-230.9c0-7,0.8-7.3,8-6.5c5.3,0.6,10.5,3,16,1.3c2.1-0.7,3.8,0.7,5.7,1c0.2,0,0.4,0.1,0.5,0.1c0,0,0.1,0,0.1,0
			c2.6,0.7,5.1,1.7,7.7,2.5c0.3,0.1,0.5,0.2,0.8,0.2c0.2,0.1,0.3,0.1,0.5,0.1c5,1.8,10.2,3.2,15.1,5.1c3.9,1.6,5.6,0.3,6.9-3.6
			c5.3-16.4,12.1-32.1,21-46.8c7.7-12.8,16.2-24.8,28.8-33.3c15.8-10.7,29.8-9.7,43.9,3.4c9.8,9.1,16.8,20.2,23.1,31.7
			c0.1,0.2,0.2,0.4,0.3,0.6c0.1,0.2,0.2,0.5,0.4,0.7c5.8,12,11.2,24.2,15.2,36.9c0.1,0.3,0.2,0.6,0.3,1c0.2,0.6,0.4,1.3,0.6,1.9
			c0.4,1,0.8,1.9,1.2,2.9c0.1,0.2,0.2,0.4,0.3,0.6c0,0,0,0,0,0c4,13.5,8,27.1,10.3,41c0.7,4.3,2.9,6.5,7,7.9
			c21.2,7,42.2,14.5,63.3,21.8c0.6,0.2,1.1,0.4,1.7,0.6c0.1,0,0.3,0.1,0.4,0.1c2.1,0.9,4.2,1.7,6.3,2.5c0.1,0,0.2,0.1,0.2,0.1
			c0.2,0.1,0.4,0.2,0.6,0.2c1.5,0.5,3,0.9,4.2,2.1c0.1,0.1,0.2,0.2,0.4,0.4c0.2,0.3,0.4,0.5,0.6,0.8
			C497.4,356.8,497.5,359,496.9,361.1z"/>
		<path class="st3" d="M772.1,744.3c-3.1,29.6-6.5,59.1-10.3,88.7c-2.6,20.5-6.3,40.7-14.8,59.8c-8.7,19.5-24.2,29.4-44.8,32.1
			c-28.4,3.7-56.8,1.6-85.2-0.7c-21.7-1.8-43.3-4.3-64.9-7.2c-27.5-3.6-54.9-7.9-82.3-12.6c-15.7-2.7-31.5-5.4-47.1-8.5
			c-7.8-1.6-15.5-4-22.6-7.7c-8.9-4.5-14.7-11.7-17.1-21.6c-0.9-3.5-2-7-3-10.5c-0.3-2.1-0.6-4.1-0.9-6.2c-0.8-0.5-1.4-1.1-1.8-1.9
			c-0.6-1.1-0.9-2.4-1.2-3.6c-12.3-52.7-25.2-105.2-33-158.8c-1.4-9.9-1.8-19.9-1.2-29.9c0.5-8.3,3.8-15.5,11.2-20.1
			c0.4-0.2,0.8-0.3,1.2-0.5c0.2-0.1,0.4-0.2,0.6-0.2c4.8-1.5,9.2,0.1,13.4,2.6c7.4,4.5,14.8,8.8,22.8,12.3c3.5,1.5,5.9,1.2,8.9-1.6
			c9.8-9.2,20.4-17.4,31.6-24.8c0.2-0.1,0.3-0.2,0.5-0.3c0,0,0,0,0,0c11.6-7.8,23.8-14.5,36.9-19.6c0.3-0.1,0.5-0.2,0.8-0.3
			c0.5-0.2,1-0.4,1.5-0.6c24.8-9.6,50.7-11.2,76.9-10.1c1.9,0.1,3.6,0.7,5.4,0.9c0.2,0,0.3,0,0.5,0c0.1,0,0.2,0,0.4,0
			c11,0.9,21.8,3.3,32.5,6.1c0.1,0,0.2,0.1,0.3,0.1c0.2,0.1,0.5,0.1,0.7,0.2c13.2,3.8,26,8.6,38.5,14.5c0.2,0,0.4,0.1,0.6,0.2
			c0.2,0.1,0.4,0.1,0.6,0.2c0.3,0.1,0.6,0.2,0.9,0.4c0.1,0,0.2,0.1,0.2,0.1c0.1,0,0.2,0.1,0.3,0.1c17.6,8.3,34.4,18,50.7,28.6
			c0.4,0.3,0.8,0.5,1.3,0.8c0.2,0.1,0.4,0.3,0.6,0.4c8.6,6.4,17.7,12.2,25.7,19.4c3.6,3.2,7,0.8,10.4,0.1c0.2,0,0.4-0.1,0.7-0.1
			c0,0,0.1,0,0.1,0c13.9-3.3,27.4-7.7,40.2-14.2c6.1-3.1,9.3-2,12.3,3.5C776.8,683.9,775.3,714.1,772.1,744.3z"/>
		<path class="st4" d="M631.1,565c0,1.7-0.7,3.7,0.8,5.2c0.1,1.7-1,2.3-2.5,2.5c0,0,0,0,0,0c-0.1,0-0.1,0-0.2,0
			c-2.1-0.4-2.5-2.2-3.2-3.8c-3.5-8.2-9.7-12.2-18.6-12.6c-7-0.3-13.6,1-20,3.1c-10.1,3.4-19.6,2.4-28.7-3.2
			c-11-6.8-17-6.7-26.2,6.4c-1,1.5-1.7,3.2-3.1,4.3c-0.1,0.1-0.1,0.1-0.2,0.2c-0.1,0.1-0.2,0.1-0.3,0.2c-1.9,0.3-3.6-0.6-5.2-1.5
			c-7.9-4.2-16.3-6.4-25.3-6.5c-1.5,0-3.1,0-4.2-1.1c-0.1-0.1-0.2-0.2-0.3-0.3c0-62,0.1-124.1-0.1-186.1c0-4.8,1.5-9.3,1.8-13.9
			c0.1-1.4-0.1-2.6-0.7-3.8c0.1-0.2,0.3-0.4,0.5-0.5c1.6-1.5,3.7-1.7,5.8-2.1c14.4-2.9,28.9-5.6,43.4-8.4c0,0,0.1,0,0.1,0
			c0.3,0,0.5-0.1,0.8-0.2c1.9-0.4,3.7-0.9,5.6-1.2c0.2,0,0.3-0.1,0.4-0.1c0.2,0,0.3-0.1,0.5-0.1c3.6-0.7,7.3-1.2,10.8-2.1
			c7.6-2.1,15.1-1.4,22.5,0.3c0.1,0,0.2,0,0.3,0.1c0.1,0,0.1,0,0.2,0.1c2,0.4,3.8,0.9,5.4,2.1c12.9,2.4,25.8,4.8,38.7,7
			c4.4,0.7,6.2,2.4,6.1,7.1c-1.2,50.4-2.3,100.8-3.5,151.2C632.2,526.5,631.6,545.7,631.1,565z"/>
		<path class="st0" d="M469.8,250.9c-0.1,0.1-0.2,0.1-0.3,0.2c-3.1,1.6-6.1,3.2-9.2,4.9c-0.4,0.2-0.8,0.4-1.2,0.6
			c-3.2-3.3-3.6-7.2-2.2-11.5c1.4-4.5,3.2-9,3.3-13.9c0.4,0.5,0.8,1,1.2,1.5v0C465.4,238.1,467.3,244.7,469.8,250.9z"/>
		<path class="st5" d="M491.3,351.5c-0.3,0.3-0.7,0.5-1.2,0.7c-2-0.8-3.9-1.5-5.9-2.3c-0.7-0.7-1.5-1.3-2.2-1.9
			c-4-3.5-8.3-6.7-12.5-9.8c-8.3-6.1-8.7-13.9-1.7-21.2c2.2-2.3,4.7-4.2,7.1-6.3c5.2-4.5,4.9-8-0.8-11.9c-3.3-2.3-7.1-3.8-11.1-4.2
			c-13.7-1.4-24.7-7.3-32.7-18.6c-2.4-3.4-6-4.6-10-4.5c-4.6,0-8.8,1.4-12.9,3.4c-2,0.9-3.8,2.6-6.1,2.5c-0.4,0-0.8-0.1-1.3-0.2
			c-0.4-1-0.8-2-1.2-3c0-0.1-0.1-0.3-0.2-0.5c-0.3-1.2-0.2-2.1,0.3-2.8c0.7-1.1,1.9-1.8,3.1-2.6c8.3-5,17.1-6.2,26.4-3.7
			c1.5,0.4,3.2,1.8,4.5-0.2c1-1.7,0.7-3.6-0.2-5.3c-1.1-2.1-2.9-3.1-5-3.8c-3.4-1-6.8-1.6-10.3-1.9c-8-0.7-13.8-4.4-16.8-12.1
			c-0.3-0.8-0.6-1.6-1-2.3c-2.6-5.8-5.8-7.4-12-5.7c-1.3,0.4-2.6,0.8-3.9,0.6c-0.6-0.1-1.2-0.3-1.8-0.7c-6.1-11.3-12.9-22.1-22.4-31
			c-14-13.3-27.8-14.4-43.5-3.2c-14.3,10.2-23.6,24.6-31.8,39.7c-7.1,13.2-13,27-17.4,41.3c-1.1,3.7-2.6,4.3-6,2.9
			c-5.5-2.2-11.3-4-16.9-5.9c-0.3-0.5-0.6-0.9-0.8-1.4c-1.7-3.3-1.5-7-1.5-10.7c0-0.4,0.1-0.8,0.1-1.3v0c0.1-0.7,0.1-1.3,0.2-1.9v0
			c1.5-9.4,7.1-15.7,16.2-19.5c5-2.1,10.3-3.7,14.6-7.4c1.9-1.6,3.6-3.4,4.7-5.6c0.1-0.2,0.2-0.3,0.3-0.5c0.1-0.1,0.1-0.2,0.2-0.4
			c1.8-3.7,1.8-7.5,0.2-11.3c0-0.1-0.1-0.1-0.1-0.2c-0.1-0.2-0.1-0.3-0.2-0.4c-0.2-0.4-0.4-0.9-0.7-1.3c0-0.1-0.1-0.1-0.1-0.2
			c-0.1-0.2-0.3-0.5-0.4-0.7c-6.7-11.4-5.9-19.2,3-27.1c0,0,0,0,0,0c0.7-0.6,1.4-1.2,2.2-1.8c0,0,0,0,0,0c0.5-0.4,0.9-0.7,1.4-1.1
			c3.6-2.7,7.5-4.9,11.6-6.6c0,0,0.1,0,0.1,0c1.4-0.6,2.8-1.1,4.2-1.5h0c0.8-0.2,1.5-0.5,2.3-0.7c0.1,0,0.3-0.1,0.4-0.1
			c0.1,0,0.3-0.1,0.4-0.1c0.2-0.1,0.5-0.1,0.7-0.2c2.2-0.5,4.2,0.1,6.2,0.7c4.1,0.4,7.7,2,11,4.4c4.8,3.5,9.4,3.3,14.1-0.4
			c3.8-3,7.8-5.6,11.9-8.2c3.1-1.9,6.6-3,10.3-3.6c10.4-1.6,16.7,2.2,19.5,12.4c1.8,6.5,4,12.7,9.1,17.4c1,0.9,1.5,2.2,3.6,1.2
			c14-6.7,19.1-5.5,29.3,6.2c5.3,6.1,12.1,7.4,19.7,6.7c2.7-0.3,5.3,0.4,7.9,0.9c11,1.9,15.3,6.9,15.8,18.1c0,0.7,0,1.3-0.1,2
			c-0.4-0.5-0.8-1-1.2-1.5c-0.2,4.9-1.9,9.4-3.3,13.9c-1.3,4.3-0.9,8.1,2.2,11.5c0.4-0.2,0.8-0.4,1.2-0.6c1.1,1.4,2.2,2.7,3.3,4.1
			c0.1,0.2,0.3,0.3,0.4,0.5c0,0,0.1,0.1,0.1,0.1c3.8,4,7,8.4,8.5,14c0.9,3.4,0.9,6.6-0.3,9.8c-1.1,2.9-0.1,4.3,2.7,5.2
			c3.2,1.1,5.6,3.5,8,5.9c6.4,6.7,5.8,15.5-1.6,21.2c-2.6,2-5.5,3.7-7.7,6.3c-2.2,2.6-2.2,5,0.3,7.5c2.4,2.4,5.3,4,8,5.9
			c3.9,2.7,7.3,5.9,9.1,10.4C491.5,348.2,492.8,350.1,491.3,351.5z"/>
		<path class="st6" d="M770.7,653.9c-5.3-5-6.3-5.2-13.1-1.8c-12.6,6.3-25.8,10.9-39.7,13.7c-0.2-0.3-0.6-0.5-0.6-0.8
			c0-0.1,0-0.2,0-0.3c-0.4-9.7-4.9-18.3-7.2-27.6c-0.7-2.6-0.5-5.3,0.1-7.9c1.5-6.6,0-12.2-5.7-16.3c-7.2-5.2-12.2-11.9-15.8-20.1
			c-3-6.8-7.7-12.8-12.4-18.7c-3.4-4.2-7-5-11.9-2.5c-7.1,3.7-12.1,9.8-16.6,16.2c-1.1,1.5-1.4,3.8-3.7,4.2c0,0,0,0-0.1,0
			c0,0,0,0,0-0.1c-2-7.3-7.4-11.2-13.9-14.1c-3.3-1.5-3.5-2.9-0.9-5.4c0.2-0.2,0.4-0.4,0.7-0.6c0.7-0.6,1.4-1.2,2-1.8
			c21.8-18.9,46.4-22.3,72.7-12.2c31.8,12.2,54.7,33.7,64.6,67.2C772,634.6,772.4,644.2,770.7,653.9z"/>
		<path class="st7" d="M309.2,175.7c-2.4,0.1-4.8,0.2-7.2,0.4c-0.1-0.3-0.1-0.5-0.2-0.8c-1.3-4.9-2.4-9.8-3.7-14.7
			c0-0.1,0-0.2-0.1-0.3c-0.1-0.1-0.1-0.3-0.2-0.4c-1.7-4-2.3-8.3-4-12.2c0,0,0-0.1-0.1-0.1c0-0.1-0.1-0.3-0.1-0.4
			c-3.6-11.9-6.3-24.2-12.9-35c0-0.1-0.1-0.1-0.1-0.2c0-0.1,0-0.1,0-0.2c0.7-4-1.1-7.4-2.7-10.7c-1.3-2.8-4-2.7-6.5-2.5
			c-8,0.6-15.9,1.5-23.8,2.4c-1.7,0.2-3.3,0.5-4.9,0.5c-0.9,0-1.8,0-2.6,0.1c-0.6,0-1.1,0.1-1.7,0.2c-3.4,0.5-6.5,1.7-9.5,3.5
			c-4.8,2.8-4.7,6.8,0.1,10c0.2,0,0.4,0.1,0.6,0.1c1,0.2,2,0.4,3,0.8c2.2,0.8,3.9,2.2,4.8,5c0.7,2.3,2.9,2.5,4.9,2.6
			c3.6,0.1,7.3-0.3,10.9,0.3c6.7,1,10.8,6.6,10,13.2c-0.8,6.3-5.9,10.5-12.2,10.1c0,0-0.1,0-0.1,0c0,0,0,0,0,0c-1-1.7,0-3.2,0.6-4.7
			c2.6-7.7-1.6-14.2-9.7-14.8c-5.3-0.4-10.7-0.5-16,0.1c-4,0.5-6.3-1.1-7.8-4.6c-0.8-2-1.8-4-3.3-5.6c-1.2-1.3-2.3-3.4-4.3-2.8
			c-2.1,0.6-1.9,3-1.8,4.7c0.1,4.8,0.8,9.6,1.4,14.4c6,44.6,15,88.6,24.8,132.5c0.5,2.2,1.6,4.5,0.7,6.8c-0.1,0.3-0.3,0.6-0.4,0.9
			c-2.3,0.3-4.1-1-5.9-2c-9-40.1-17.3-80.3-23.5-121c-3.1-20.6-5.6-41.2-6.2-62c-0.2-7,0.6-13.9,1.5-20.9c3.4-27,34.6-33.7,52-20.8
			c6.8,5.1,12.5,11.1,16.4,18.5c8.1,15.1,14.5,30.9,20.2,47.2c4.9,14.1,8.9,28.5,13.8,42.6C305.6,162.2,306.3,169.3,309.2,175.7z"/>
		<path class="st8" d="M579.2,321.9c-1.9,1.7-3.8,0.9-4.5-0.8c-2.5-5.7-7.8-8-12.6-10.8c-3.5-2-5.1-4.6-6.1-8.4
			c-6.6-26.3-22.7-43.7-48.7-51.8c-4-1.2-8.1-1.8-12.3-1.8c-1.6,0-3.2-0.4-4.3-1.9c0,0,0-0.1-0.1-0.1c0-0.1,0-0.1,0-0.2
			c0.4-4.4,1.9-5.5,7.2-5.8c39.2-17.2,76.7,15,81.2,48.2C580.6,299.7,580.5,310.8,579.2,321.9z"/>
		<path class="st9" d="M497.9,240.3c-2.5,1.6-6.5,1.5-6.8,5.7c-0.1,0.1-0.2,0.2-0.4,0.3c-1.4,1.3-3.3,1.6-5.1,1.7
			c-5.2,0.3-10,2.4-15,3.4c-0.4-0.1-0.8-0.2-1.1-0.4c0.1,0,0.2-0.1,0.3-0.2c-2.5-6.2-4.4-12.8-8.5-18.2v0c-0.4-0.5-0.8-1-1.2-1.5
			c-0.5-12.7-5.9-17.5-20.4-18c-3.5-0.1-7,0.1-10.4-0.1c-5.4-0.3-9.4-2.8-11.3-8c7.8-7.7,15.7-15,27.5-15.2
			c14.5-0.2,24.9,7.1,33.3,18c6.6,8.6,11.2,18.5,16.1,28.1C495.7,237.5,496,239.5,497.9,240.3z"/>
		<path class="st10" d="M591.3,342c-1.8,0.1-3.6,0.1-5.3-1c-0.2-0.4-0.5-0.9-0.7-1.3c-4.7-8.5-10.6-15.9-18.7-21.6
			c-2-1.4-4.1-2.8-6.5-4.3c-1.3,9.8-2.3,19.5-8.1,27.7c-0.3,0.5-0.7,1-1.1,1.5c-2,0.4-3.9,1.4-6,1c-0.1-0.3-0.2-0.6-0.2-1
			c-0.2-1.7,0.8-3.2,1.6-4.7c16.3-30.6-0.9-64.2-25.7-78c-14.8-8.2-30.2-11-46.6-5.1c-3.6,1.3-6.7,3.5-10.1,5.3
			c-0.3,0.2-0.6,0.3-1,0.5c-1.3-1.5-2.6-3-4-4.5c0.4-0.2,0.8-0.4,1.2-0.6c3.1-1.6,6.2-3.2,9.2-4.9c0.1,0,0.2-0.1,0.3-0.2
			c6.6-3.1,13.8-4.1,20.9-4.8c0.1,0,0.3,0,0.4,0c5.5,2,11.4,0.9,17,2.8c27,8.8,43.3,27.2,49.7,54.6c0.6,2.4,1.4,3.7,3.5,4.8
			c3.8,2.1,7.3,4.6,10.9,6.9c1.5,0.9,2.7,2,2.8,3.9c0.2,2.7,2,3.2,4.2,2.9C585.3,327.4,589.4,334,591.3,342z"/>
		<path class="st11" d="M318.1,648.1c-3.4,0.8-5.4,3.5-7.5,6c-6,6.9-11.6,14.1-17.9,20.7c-16.4,17.4-31.4,36.1-48.6,52.8
			c-3.4,3.3-7.1,6-10.9,8.7c-4.9,3.5-10,3.2-14.9,0.3c-5.2-3.1-7.8-9.9-6.8-15.4c1.6-8.9,6.4-16.4,11.1-23.8
			c15.9-24.9,31.8-49.8,48.6-74.2c14.4-20.9,30.3-40.7,45.8-60.7c18.1-23.3,36.8-46,55.7-68.7c13.1-15.6,25.9-31.5,39.2-46.9
			c5.1-5.9,10.4-11.7,16.8-16.2c5.7-4,13.4-3.4,19.5,1.2c6.3,4.8,8.7,11.5,6.2,18.2c-5,13.9-13.9,25.7-22.1,37.8
			c-10.6,15.8-21.8,31.3-32.8,46.9c-12,16.9-24.1,33.7-36.3,50.5c-2.1,2.8-2.8,4.5,1.8,4.9c5.5,0.5,10.6,2.6,15.1,6
			c1.4,1,2.7,2,2.8,3.9c-6.3,2.7-12.7,5.3-19.1,7.7c-6.6-3.9-13.1-7.8-20.9-8.8c-16.4-2.1-30.5,3.2-43.3,13c-1,0.8-2.1,1.7-2.1,3.6
			c2.1,1.2,4.1,0.1,6-0.5c4.8-1.5,9.6-2.9,14.5-3.7c1.6-0.3,3.6-0.7,4.6,0.8c1.2,1.7-0.6,3-1.6,4.3c-5.9,7.1-7.4,15.4-7.1,24.3
			C314.3,643.8,315.4,646.3,318.1,648.1z"/>
		<path class="st12" d="M210.1,610.8c0-101.6-0.1-203.2,0.2-304.7c0-8.8,0.8-17.6,0.8-26.4c0-3.3,1.1-3.5,4.3-3.2
			c16.5,1.3,31.6,7.4,47,12.5c3.3,1.1,6.1,1.6,8-2.2c0.3-0.5,0.8-1.1,1.4-1.3c2.9-1,13.7,4.7,14.4,7.7c0.6,2.8,2.3,4.2,4.9,5
			c4,1.1,8,2.2,11.8,3.8c2.7,1.1,5.7,2.9,5.2,6.5c-0.6,3.5-2.8,5.9-6.4,6.9c-4.8,1.3-9.7,1.1-14.4,0.5c-15.9-2.1-31.9-3.5-47.6-6.8
			c-7.5-1.6-7.9-1.7-7.4,6.3c3.3,47,1.6,94.1,1.8,141.2c0.1,17.6-0.7,35.2-2.1,52.7c-1.1,14.6-3.8,29.2-5.6,43.7
			c-1.8,13.8-3.3,27.6-5.2,41.3c-1.7,12.1-2.2,24.4-6.6,36c-0.5,1.3-0.3,3.5-2.4,3.1c-1.6-0.3-1.9-2.2-1.8-3.7
			C210.4,623.3,208.2,617.1,210.1,610.8z"/>
		<path class="st13" d="M463,261c2.1-4.4,6.5-5.4,10.5-6.9c19.5-7.1,37.4-2.5,53.7,8.8c14.5,10.1,23.3,24.5,26.4,41.9
			c1.8,10.1,0.3,20.2-3.9,29.7c-1.4,3.2-3.1,6.3-4.7,9.4c-9.4,2.8-19.2,3.9-28.7,6c-7.1,1.5-14.2,2.7-21.3,4.1
			c-1.6-0.6-3.3-1.3-4.9-1.9c1.6-4.3-1.4-7.1-3.6-10c-2.8-3.6-6.9-5.6-10.6-8.2c-7.6-5.2-7.8-8.6-0.7-14.6c0.9-0.7,1.9-1.4,2.8-2
			c11-7.7,11.2-18.5-0.7-24.6c-6.2-3.3-7.7-5.7-5.8-12.5c1.6-5.7-2.1-11.2-5.8-15.8C464.9,263.3,463.9,262.2,463,261z"/>
		<path class="st14" d="M354.1,636c-7.8,5.8-10.9,13.6-11.1,23.2c-0.5,19.2,2.9,37.9,6.3,56.6c7.8,42.6,17.7,84.8,27.7,126.9
			c0.6,2.4,1.3,4.8,2,7.2c-17.1-6.8-34.2-13.5-51.3-20.3c-2-0.8-3.2-2.6-2.4-4.9c1.1-2.9,0.7-5.9,0.7-8.9c0-29.1-0.1-58.2,0-87.3
			c0.1-19.9,1.4-39.7,3.9-59.4c0.6-5.1,0.8-10.2,1.2-15.3c4.7,1.9,4.9,1.8,5.5-3.4c1-9,4.3-17,11.1-23.1c1.8-1.6,4.1-4.5,7.2-1.4
			C355.6,629.3,356.2,632.8,354.1,636z"/>
		<path class="st15" d="M400,277c6.4-2.7,12.1-6.9,19.5-7c5.3-0.1,9.6,1.5,12.5,5.8c7.3,10.6,17.5,15.9,30.1,17.3
			c4.9,0.5,9.4,2.1,13.4,5c6.3,4.5,6.4,8.7,0.5,13.6c-2.5,2.1-5.2,4.1-7.6,6.4c-6.3,6.3-5.8,13.1,1.2,18.7c3.6,2.9,8,4.7,11.2,8.3
			c1.3,1.5,3,2.7,3.5,4.8c-23.1-7.9-46.1-15.8-69.2-23.7c-2-0.7-3.6-1.6-4-3.9C408.7,306.9,404,292,400,277z"/>
		<path class="st8" d="M493.9,557.9c12.6-0.7,24.2,2.7,35,9.1c2.2-0.1,3.7,1.1,5.3,2.3c7.3,5.3,13.5,11.6,17.8,19.6
			c1,1.8,2.5,3.6,1.7,5.9c-27.4-2.5-54.3-0.8-80.5,8.5c-1.1,0.4-2.2,0.5-3.4,0.7c-1.2-0.1-2.2-0.8-2.9-1.7c-4.4-5-10.2-7.6-16.4-9.8
			c-2.1-1.7-2-3.8-0.8-5.8c5-8.6,11.7-15.6,19.9-21.3c1.3-0.9,2.9-0.5,4.2-1.4C480.4,561.2,486.9,558.8,493.9,557.9z"/>
		<path class="st16" d="M354.1,636c0-3.6,0-7.1,0-10.7c-0.1-7.9,3.7-13.6,9.8-18.1c6.1-3.3,12-7,19.2-7.2c4.7-0.2,9.3,0.4,14,1.1
			c11.2,3.3,20.2,10.2,29.3,17.1c2.2,1.6,5,2.8,5.7,5.9c-11.6,8.8-23.6,17.1-33.9,27.4c-1.6,1.6-2.9,1.5-4.9,0.7
			c-9-3.5-17.4-8.2-25.5-13.4C363.4,636,359,634.9,354.1,636z"/>
		<path class="st17" d="M235.1,274c-5.6-25.5-11.2-51-16.1-76.6c-4.1-21.4-7.4-42.9-10.7-64.5c-0.8-5-0.9-10.2-1.1-15.3
			c-0.1-2,0.3-4.3,2.1-5.2c2.3-1.1,3.6,1,5,2.4c1,1.1,2.4,2.1,2.8,3.4c2,7.5,6.9,9.2,14,8c3.1-0.6,6.3-0.1,9.5-0.1
			c11.2,0.1,16.6,9.2,11.2,19.1c-0.3,0.6-0.4,1.3-0.6,1.9c0,2.6-2.2,3.3-3.9,3.9c-5.9,2.1-9.8,6-11.9,11.8c-0.8,2.2-2.2,4.2-4.2,5.5
			c-3.8,2.3-4.6,5.6-4.6,9.7c-0.1,10.1,2.2,19.8,4,29.7c3.4,18.2,7.3,36.2,11.7,54.2c0.2,0.8,0.5,1.6,1,2.2c0.3,4.3,0.7,8.6,1,12.9
			C241,276,238.1,275,235.1,274z"/>
		<path class="st18" d="M342.1,225c7.1,6.6,10.7,15.4,14.7,23.9c1.7,3.6,3.7,7.1,4.2,11.1c-1.2,1.1-2.6,0.6-3.8,0.3
			c-11.6-3.3-19.6,2.2-26.3,10.7c-2.7,3.5-5,7.5-7.6,11.1c-5,7-11.8,11.6-20.2,13.7c-11.9-3.3-12-3.4-8.2-15c1-3,1.3-6.1,3.1-8.8
			c1-1,2.2-1.4,3.5-1.8c7.7-2.7,11.8-8.3,13-16.1c0.6-3.9,0.9-7.9,1.3-11.9C317.1,229.9,331,220.9,342.1,225z"/>
		<path class="st15" d="M365,270c6.2,13.1,9.5,27.1,14,40.7c0.8,2.3,1.3,4.7,2.2,8c-8.1-2.4-15.6-4.5-23.2-6.7
			c-14.6-4.3-29.2-8.6-43.8-12.9c-0.8-0.2-1.4-0.7-2.2-1.1c-0.4-1.8,1.1-2.3,2.1-2.9c6.6-4,11.3-9.7,15.4-16
			c3.4-5.3,6.8-10.6,12.6-13.9C350.4,260.6,359.3,262.3,365,270z"/>
		<path class="st5" d="M363.8,607.2c0,0.6,0.3,1.7,0,1.9c-5.7,3.3-8,8.5-8.6,14.8c0,0.5-0.8,1-1.2,1.5c-10.7,4-13.6,13.5-16,23.2
			c-0.3,1.1,0.1,2.4-0.3,3.4c-0.8,1.9,0.7,5-1.6,5.8c-2.9,1-3.2-2.6-4.9-3.9c-3.1-7.4-3.8-15-1.8-23.8c-5.6,5.7-7.4,12.5-11.3,18
			c-3.5,0.6-4.7-1.4-5.1-4.5c-1.4-11.6,0.7-22.1,9.3-30.8c-3.7-0.7-8,0-14.8,2.1c-2.7,0.8-5.4,1.6-8.1,2.5c-1.5,0.4-3,1-4-0.7
			c-0.9-1.7,0.4-2.8,1.4-3.9c6.4-6.7,14.6-10.3,23.1-13.2c12.2-4.1,24.2-3.4,35.9,1.7C359,602.6,361.4,604.8,363.8,607.2z"/>
		<path class="st19" d="M432,624c-10.6-8.1-21-16.7-33.7-21.5c-0.5-0.2-0.9-1-1.3-1.5c5.9-10.8,17.9-16.8,28.4-10.9
			c2.7,1.5,5.4,3.3,8.5,3.9c3.4-0.6,7-0.4,10.1-2.1c2.3-0.5,4.6-1.6,6.9,0.1c8.3,0.9,14.1,5.8,19.1,12
			C456.8,609.6,444.3,616.6,432,624z"/>
		<path class="st18" d="M382,233.1c1.9,0.2,3.6-0.5,5.3-1.2c6.1-2.3,11.3-0.5,13.3,5.7c3.1,9.7,9.1,14.6,19.4,14.7
			c3.2,0,6.5,1.1,9.7,2.1c3.3,1,5.1,3.5,5.4,7.1c0.3,5.1-1.5,6.5-6.1,4.5c-7.6-3.2-23.6-0.3-29.2,5.3c-0.8,0.8-0.6,1.8-0.8,2.8
			C394.2,260,388.8,246.3,382,233.1z"/>
		<path class="st20" d="M342.1,225c-4.5-0.1-8.9,0.8-13.1,2.2c-7.1,2.4-11.1,7.5-11.9,15c-0.4,3.9-0.7,7.9-1.1,11.8
			c-1,10-8.3,17.3-17.9,18c5.1-15.1,11.8-29.5,21.4-42.3c1.7-2.2,3.6-4.3,5.7-6.2C331.4,217.9,336.6,218.4,342.1,225z"/>
		<path class="st21" d="M365,270c-11-9.2-21-8.2-29.8,3.3c-2.2,2.9-4.3,5.9-6.2,9c-4.1,6.9-10.2,11.6-16.9,15.8
			c-3.1,0-5.9-1.3-8.8-2.2c1.5-0.9,3-2,4.6-2.7c7-3.1,12.4-7.9,16.5-14.5c2.7-4.4,5.4-8.7,9-12.4c7.9-8.1,17.1-10.1,27.6-6.1
			C363,263.1,364.1,266.5,365,270z"/>
		<path class="st14" d="M450.9,592c-2.3,0.3-4.6,0.7-6.9,1c-1.4-1.3-1.4-3-1.2-4.6c0.9-6,0.8-12.2,2-18.2
			c8.6-7.5,18.2-10.3,29.3-6.2c-9,5.6-16.4,12.7-22.2,21.6C450.6,587.7,449.3,589.6,450.9,592z"/>
		<path class="st22" d="M444.8,570.2c2.6,4.8-0.5,9.6-0.1,14.5c0.2,2.7-0.5,5.6-0.7,8.3c-3.2,1.8-6.5,3-10.1,1
			c-1.3-5.5-2.6-10.9-3.8-16.4c-0.6-2.8,0.9-4.4,3.5-5C437.4,571.8,441.1,571,444.8,570.2z"/>
		<path class="st23" d="M737.1,707.6c11.4-3.3,21.7-8.1,32.4-12.2c1.5,5.1,0.4,8.1-4.7,9.8c-8,2.6-15.9,6-23.8,8.9
			c-2.9,1.1-4.3,2.5-3.6,5.9c0.6,3.1,0.5,6.3,0.6,9.4c0.3,14.8,0.7,29.6,0.9,44.4c0,3.7,1.2,4.2,4.3,3.1c5.5-1.8,11.1-3.5,16.7-5
			c1.6-0.4,4.1-3,4.7-0.1c0.4,2.1,0.7,5.9-3,7c-5.7,1.7-11.4,3.7-17.2,5.1c-4,1-5.3,2.7-5.7,7.1c-1.2,15.3,0.3,30.6-1.5,45.9
			c-0.4,3.3,0.5,4.8,4.2,3.4c5-1.9,10.1-3.4,15.3-5.1c0.6,4.9-0.3,8.5-5.6,9.6c-1.9,0.4-3.8,1.2-5.7,1.9c-8.8,2.9-9,2.9-9.2,12.2
			c-0.5,15-2,29.8-3.1,44.7c-0.3,4.8-4,6.4-8.1,9.2c0.2-3,0.2-5.2,0.5-7.4c1.7-16.5,3-33.1,3.7-49.7c0.1-3-0.6-3.7-3.7-2.8
			c-10.2,2.8-20.5,5.5-30.9,8c-2.2,0.5-2.7,1.5-2.4,3.4c2.5,16.2,4.9,32.5,7.4,48.7c0.2,1.6,0.4,3.3,0.6,4.9c0.3,2.6-1.2,3-3.3,3.1
			c-2,0-3.4-0.1-3.8-2.7c-1.9-13.1-4-26.2-6-39.4c-0.7-4.4-1.4-8.8-1.9-13.3c-0.3-2.2-1-2.7-3.2-2.3c-12.4,2.2-24.9,4.4-37.5,4.6
			c-3.2,0.1-3.3,1.4-2.8,4.1c2.8,15,5.9,29.9,9.2,44.8c0.3,1.4,2.8,4.1-0.6,4.8c-2.8,0.6-5.7,0.9-6.6-3.6
			c-2.9-15.2-6.3-30.2-9.2-45.4c-0.6-3.3-1.9-4.1-4.9-3.8c-12.6,1.2-25.3,0.9-37.9,0.8c-3.6,0-7.3-0.3-10.9-0.8
			c-4.3-0.5-5.2,1.4-4.3,5.2c3,12.4,5.9,24.9,8.8,37.3c0.4,1.7,2.4,4.4-0.4,5c-2.7,0.6-5.8,0.2-6.7-4c-2.7-12.6-6-25.2-8.7-37.8
			c-0.8-3.8-1.7-5.8-6.4-6.1c-16.7-1-33.4-2.8-50.1-4.3c-3.8-0.3-2.5,2.1-2,3.9c2.9,11.4,5.9,22.8,8.7,34.3c0.4,1.8,2.7,4.4-0.4,5.2
			c-2.9,0.8-5.9-0.2-6.9-4c-3-11.9-6.1-23.8-9-35.7c-0.8-3.3-1.8-4.9-5.7-5.3c-10.9-1.1-21.7-3-32.5-4.6c-4.7-0.7-5.4-0.1-4,4.6
			c2.9,10.4,6.1,20.7,8.8,31.2c0.5,1.8,3.2,4.8-0.2,5.8c-3.2,1-6-0.6-7-4.5c-2-7.6-4.3-15-6.5-22.5c-1.3-4.5-2.7-8.9-3.7-13.4
			c-0.6-2.6-2.1-3.7-4.4-4.1c-11.5-1.8-22.8-4.4-34.1-7.1c-3.8-0.9-5.4-0.6-3.9,4.1c3.3,10.6,6.1,21.4,8.8,32.2
			c0.4,1.6,3.4,4.4-0.2,5.3c-2.5,0.6-5.8-0.2-6.8-3.6c-1.6-5.4-3.2-10.8-4.6-16.3c-1.8-6.7-3.7-13.5-5.2-20.2
			c-0.8-3.4-2.5-5-5.9-5.7c-4.2-0.8-8.4-2.1-12.5-3.3c-2.1-0.6-3.8-2-3-4.4c0.8-2.3,2.8-0.8,4.3-0.6c2.8,0.5,5.6,0.9,8.3,1.5
			c5.8,1.1,5.7,1.2,4.4-4.9c-3.2-14.9-6.3-29.9-9.4-44.8c-0.6-3.1-1.9-5-5.3-5.5c-3.9-0.6-7.7-2.1-11.6-2.8c-3.6-0.7-5.7-2.5-5.5-7
			c5.5,1.1,11,2.1,16.4,3.4c2.9,0.7,3.8,0.5,3.2-2.9c-2.8-17.5-6.2-35-7.5-52.7c-0.7-8.9-4.2-12.1-11.9-13.6
			c-3.5-0.7-6.9-2.5-10.3-3.6c-3.4-1.1-5.2-3.2-4.7-7.1c6.7,2,13.4,3.7,19.9,5.9c3.8,1.3,4.8,0,4.5-3.6c-1.3-14.6-1.3-29.3-1-43.9
			c0-1.6-1.3-4.6,1.9-4.6c2.4,0,4.1,1.8,4,4.7c-0.3,14.2,1.2,28.2,2,42.3c0.5,8,0.3,8.2,7.9,9.8c9.4,2,18.9,3.6,28.3,5.5
			c3.7,0.8,3.9-1,3.5-3.8c-2-12.4-2-24.8-1.7-37.3c0-1.7-1-4.5,2.3-4.4c2.8,0.1,2.6,2.4,2.7,4.4c1,13.2,1.9,26.5,3.8,39.6
			c0.4,2.4,1.1,3.5,3.6,3.8c14.3,1.8,28.6,3.7,42.9,5.7c2.8,0.4,3.7-0.6,3.4-3.2c-1.5-12-0.8-23.9,0.2-35.8c0.1-1.5-0.5-3.6,2.2-3.6
			c2.6,0,2.7,1.9,2.8,3.9c0.4,11.1,0.9,22.3,1.1,33.4c0.1,4.1,0.5,6.7,5.8,7c12.7,0.8,25.4,2.4,38.2,3.6c5.5,0.5,11,0.5,16.4,1.3
			c3.3,0.5,3.6-0.6,3.6-3.3c-0.1-10.3-0.1-20.7,0-31c0-2.3,0.6-4.6,0.8-6.9c0.2-2.1,1.5-2.3,3.2-2.1c1.8,0.1,2,1.4,2,2.8
			c0,6,0,12-0.1,18c-0.1,6.7,0.4,13.3,0.9,19.9c0.2,2.2,0.6,3.3,3.1,3.4c18.6,1.4,37.2,2,55.8,1.8c2.8,0,3.2-1.4,3.2-3.8
			c-0.1-8.3-0.1-16.7,0-25c0.1-5,0.7-9.9,0.9-14.9c0.1-2.3,0.8-3.3,3.2-3.3c2.7,0,2.9,1.5,2.9,3.6c0,12.5,0.2,25-0.1,37.5
			c-0.1,4.3,1.4,5.3,5.5,5.2c12.5-0.3,24.8-2,37.2-3.3c3.1-0.3,4.4-1.8,4.4-5.2c-0.1-11.5-0.6-23,1-34.4c0.2-1.5,0.4-3,0.6-4.4
			c0.3-2.1,1.4-3.5,3.5-3.4c2.8,0.1,1.7,2.4,1.7,3.8c0.1,12.5,0.2,25,0,37.5c0,3.4,0.8,4.1,4.3,3.5c15.2-2.9,30.1-6.8,44.9-11.1
			c2.2-0.7,2.7-1.7,2.5-4c-1.2-11.6-0.1-23.3-1.4-34.9c-0.2-2-0.6-4.8,2.6-5c3.3-0.1,2.1,2.8,2.3,4.5
			C735,683.5,736,695.3,737.1,707.6z"/>
		<path class="st15" d="M614.8,629.9c11.5,3.7,21.8,9.8,32.4,15.4c11.6,6.1,22.7,13.1,33.6,20.5c-1.1,2.5-2.1,5-3.9,7.1
			c-16.4,2.1-32.9,3.4-49.4,4.3c-22,1.2-44,1.9-66.1,1.7c-1.1,0-2.3-0.4-3.4-0.5c2.3-2.8,5.6-1.5,8.4-1.6c3.5-0.1,4.4-1.5,3.4-4.7
			c-2.5-8.2-8.4-13.8-14.7-19.1c-1.7-1.4-3.8-2.2-4.8-4.3c-0.6-4,0.9-7.7,3.2-10.6c4.4-5.6,5.3-11.9,5.2-18.6c0-2.4-0.7-4.9,0.5-7.3
			c18.6,3.4,36.5,9.1,53.8,16.7c-5,5.6-12.2,7.2-18.7,9.9c-6.3,2.7-11.2,6.9-14.9,10.1c4.7-5.3,12.3-9.5,20.5-12.3
			C605.1,634.7,609.4,630.9,614.8,629.9z"/>
		<path class="st24" d="M553.9,594.8c-5.2-12.1-14.1-20.8-24.9-27.8c2.2-6.3,6.4-11.1,11.8-14.8c5-3.4,10.4-2.2,14.5,0.7
			c12.8,9.3,25.7,7.4,39.7,3.3c10.3-3,21.1-2.9,29.3,6.5c2.1,2.4,2.8,5.2,3.8,8c0.3,0.9,1,1.2,1.9,1.3c-2.2,2.7-2,3.9,1.6,5.5
			c6.2,2.8,13,5.7,12.5,14.5c0.5,1.5-0.1,2.6-1.2,3.5c-6.7,1.6-12.8-0.3-18.4-3.7c-3.4-2-6.4-4.8-9.5-7.2
			c-9.9-7.5-20.5-4.2-25.1,7.4c-1.1,2.9-0.8,6.3-2.8,8.9C576,598.7,565.1,595.8,553.9,594.8z"/>
		<path class="st5" d="M643.1,594.9c0.3-1,0.6-1.9,0.9-2.9c4.9-9,11.1-16.9,20.4-21.7c5.3-2.7,9.8-1.6,13.1,3.1
			c6,8.5,12.4,16.8,16.1,26.8c1.5,4.1,5.2,7,8.7,9.4c7.9,5.4,11.5,11.8,8.8,21.6c-1.5,5.3,1.1,10.5,3.1,15.4
			c2.6,6.3,4,12.6,3.5,19.4c-5.4,2.2-9.7,2.3-14.6-2.5c-6.8-6.5-14.9-11.6-22.5-17.3c-3.6-5-7.6-9.6-11.9-13.9
			c-4.6-4.5-6.7-9.8-3.6-16.2c0.3-0.6,0.4-1.3,0.6-1.9c3.6-12.1,1.2-16-11.1-18.3c-3.2-0.9-6.4-0.7-9.7-0.2
			C644.4,595.7,643.7,595.5,643.1,594.9z"/>
		<path class="st5" d="M551.1,648.9c9.2,5.7,17,12.7,20.2,23.6c1.5,5.1,1.1,5.6-4.3,5.7c-3,0-6,0.1-8.9,0.2
			c-21.6-0.5-43.2-1.9-64.7-4.4c-4.4-0.5-9-0.5-13.3-2c-2.8-2-7-2.7-6.6-7.4c11.3-19.7,29.8-31.1,55.4-25.6c5.3,1.2,10.5,3,15.5,5.1
			C547.1,645,549.2,646.8,551.1,648.9z"/>
		<path class="st15" d="M655,594.9c11.3,0.4,16.7,6.4,12.6,16.7c-4.3,10.9-1,17.9,7,24.6c3,2.5,5.5,5.8,6.2,9.9
			c-10.1-6-20.1-12.1-30.3-17.9c-7.5-4.3-15.1-8.1-22.7-12.1c2.2-3.2,2.7-3.4,8.1-2.6c-5-0.8-5.8-0.6-10.1,2.3
			c-12.6-6-25.7-10.5-38.9-14.8c-0.4-4.3,0.7-8.4,2.8-12c4.9-8.5,15.2-15.5,27.4-4.3c7.4,6.8,15.7,11,26,10.2c0.6,0,1.2,0,1.8,0.1
			C648.3,594.2,651.7,594.2,655,594.9z"/>
		<path class="st6" d="M529,640c-8.2-1.1-16.4-1.9-24.5,0.3c-11.9,3.3-20.4,11-27.4,20.7c-1,1.3-1.9,2.7-2.9,4
			c-1.5-0.1-2.4-1.2-3.3-2.1c-7.8-7.7-15.6-15.5-23.3-23.3c-1-1-2.3-2-2.3-3.7c18.1-11.7,37.4-20.5,58.9-24.1
			c2.6-0.7,4.4,1.1,6.3,2.3c8.3,5.7,13.7,13.8,18.3,22.6C529.2,637.7,529.6,638.8,529,640z"/>
		<path class="st8" d="M529,640c-5.8-11.6-12.7-22.2-24.9-28.2c11-2.4,22.1-3.3,33.4-2.2c7.2,0.7,14.5,1.1,21.7,2.6
			c1.2,9.2,2.2,18.3-4.3,26.3c-2.4,3-3.5,6.7-3.7,10.5C544.2,644.9,536.7,642.1,529,640z"/>
		<path class="st16" d="M445.2,635.9c10,9.4,19.6,19.1,28.9,29.1c0.1,3.9,5.1,3.7,6,7c-15-1.2-29.8-4.1-44.5-7.3
			c-6.1-1.3-12.1-3.3-18.3-4.6c-3.8-0.8-3.2-2.1-0.9-4C425.5,648.6,434.7,641.3,445.2,635.9z"/>
		<path class="st25" d="M614.8,629.9c-4.8,3.2-9.9,6-15.4,7.9c-9.2,3.3-16.9,8.9-23.9,15.5c3.8-7,9.7-11.7,16.8-14.9
			c7-3.1,14.1-5.8,20.7-9.7C613.6,629.1,614.2,629.5,614.8,629.9z"/>
		<path class="st26" d="M677,672.9c0.5-2.8,0.7-5.7,3.9-7.1c2.1,1.8,4.9,2.8,7,5.9C683.9,672.1,680.4,672.5,677,672.9z"/>
		<path class="st27" d="M625.9,615.8c2.6-4.3,6-4.9,12.6-2c-3.8,0.6-7.6-0.4-10.6,2.3C627.2,615.9,626.6,615.9,625.9,615.8z"/>
		<path class="st13" d="M551,343c4.3-9.7,7.4-19.6,8.1-31.2c12.3,7.7,23,15.2,27,29.2C574.1,337.6,562.6,340.9,551,343z"/>
		<path class="st28" d="M243,264c-2.3-0.2-2.3-2.3-2.7-3.7c-5.7-23.3-10.8-46.6-14.4-70.3c-0.5-3.3-0.8-6.5-0.9-9.9
			c-0.3-5.6-0.5-10.9,5.9-13.7c1.8-0.8,2.6-3,3.2-4.9c2-6.1,6.1-9.9,12.2-11.8c1.7-0.5,3.1-1.8,4.7-2.7c8.5-2.8,11.2-5.8,11-12
			c-0.2-5.5-4.1-9.7-9.6-10c-2.8-0.2-5.6-0.1-8.5,0c-4,0.1-8,0.7-8.6-5.2c-0.5-4.2-5.2-1.6-7.3-3.8c4.3-2.6,9.3-1.3,13.9-2.3
			c1.7-0.4,3.6-0.3,5.3-0.8c9.2-1.2,18.4-2.6,27.7-2.4c2.1,0,4.4-0.2,6.1,1.6c3.9,2.5,5.1,6.5,6.4,10.6c2.6,8.1,5.6,16.1,7.6,24.4
			c-5.7,2.5-12,2.3-18,3.2c-8.4,1.4-16.7,3.2-24.6,6.3c-2.7,1.1-6.7,2.1-5.8,5.7c0.8,3.4,4.8,2.3,7.4,2.1c13.3-1.1,26.5-3,39.7-4.4
			c1.8-0.2,3.6-0.6,5.4-0.1c0.8,5.4,4.3,10.2,2.9,16c0,0,0,0,0,0c-7.9,1-15.1,3.5-20.7,9.5c-2.1,2.2-5.2,2.8-8,3.9
			c-8,3.2-16.2,5.9-24.1,9.5c-3.8,1.7-6.8,4.2-6.7,9c0.1,5.3,3.5,8.4,9.6,8.7c7,0.4,13.8-1.6,20.8-2.3c1.8-0.2,3.6-0.7,5.3,0.6
			c0.2,0.4,0.5,0.7,0.7,1.1c-1.7,2.5-4.7,3-7,4.5c-2.3,1.4-4.9,3-3.8,6.1c1,2.8,3.8,2,6.1,1.7c1.6-0.2,3.3-0.8,4.7,0.5
			c-2.8,6.4-8.3,9.7-14.4,12.1c-7.5,2.9-14.8,5.8-18.9,13.6C243.9,257.7,243.4,260.8,243,264z"/>
		<path class="st29" d="M278.1,215c-8.5,0.9-16.9,3.1-25.5,3.1c-6.4,0-10-2.5-11.3-7.6c-1.4-5.5,0.5-9.7,6.6-12.3
			c9.9-4.2,19.9-8,30-11.9c1.4-0.6,2.8-1.1,3.7-2.3c5.3-6.6,12.4-8.4,20.4-7.9c-7.8,2.9-15.4,6-21.5,11.9
			c-8.8,8.6-9.6,14.1-3.4,24.7C277.6,213.4,277.8,214.2,278.1,215z"/>
		<path class="st30" d="M278.9,229c-2.1,0.3-4.2,0.8-6.3,1c-2.6,0.3-5.2,0-6.1-2.9c-0.9-2.7,0.6-4.9,2.8-6.4c3-2,6.2-3.8,9.7-4.7
			C281.2,220.4,281.3,224.7,278.9,229z"/>
		<path class="st31" d="M299.2,160.1c-4.4,2.5-9.3,1.8-14,2.4c-11.2,1.4-22.4,2.5-33.5,3.6c-2.9,0.3-6.5,0.7-7.3-3.3
			c-0.7-3.7,2.5-5.2,5.2-6.4c8.3-3.8,17.2-6.1,26.3-7.2c6.4-0.8,12.7-2.5,19.2-2C296.4,151.4,297.8,155.7,299.2,160.1z"/>
		<path class="st32" d="M281,112.1c-11.4-0.8-22.6,1.4-34,2c-1.4,0.8-2.9,0.4-4.4,0.2c-5.3-0.8-8.3-3.1-8.5-6.3
			c-0.2-3.2,3.2-6.5,7.8-7.8c10.2-1,20.5-1.9,30.7-3.2c4.1-0.5,6.2,1,7.2,4.9c0.6,2.4,1.6,4.7,2.6,7
			C283.2,110.5,283.2,111.8,281,112.1z"/>
		<path class="st33" d="M242.1,100.2c-2.9,2.2-7.2,4.2-6.5,8.2c0.7,4.3,5.6,4.4,9.1,5.6c0.7,0.3,1.6,0.1,2.5,0.1
			c-6.2,1.9-12.6,2-19,2c-5.2-2.6-5.8-8.2-0.8-11.4C231.6,101.7,236.7,100.3,242.1,100.2z"/>
		<path class="st3" d="M556,797.4c0.3,2.1-1.2,2.6-3.3,2.4c-15.2-1.5-30.4-2.9-45.6-4.4c-0.5,0-1-0.3-1.5-0.3
			c-11.2-1.7-11-1.7-12.6-12.8c-2.5-16.9-4.9-33.8-6.4-50.8c-0.2-2.3-0.4-3.6,2.5-3.2c19.1,2.6,38.3,3.9,57.5,5.6
			c2.5,0.2,3.4,1.1,3.5,3.6c0.9,19.4,3.1,38.7,5.9,57.9C555.9,795.8,555.9,796.3,556,797.4z"/>
		<path class="st3" d="M591.2,800c-9.3,0-16.5,0-23.6,0c-2.3,0-4.2-0.2-4.5-3.2c-1.9-18.5-4.1-36.9-5.9-55.4
			c-0.6-6.6-0.3-6.8,6.1-6.5c17.1,1,34.2,1.2,51.4,1c3.2-0.1,4.3,0.9,4.4,4.2c0.3,17.1,2,34.1,3.9,51.1c0.8,7.3,0.7,7-6.4,7.9
			C607.3,800.4,598.2,799.6,591.2,800z"/>
		<path class="st3" d="M602.8,861.9c-8.3,0-16.6-0.1-25,0c-2.8,0-4.3-0.8-4.8-3.7c-2.6-15.5-5.2-31-7.9-46.5
			c-0.6-3.3,0.8-4.1,3.8-3.9c15,0.7,29.9-0.8,44.9-0.8c3.4,0,7.3-2.6,10.1,0c2.5,2.3,1.2,6.3,1.6,9.6c2,13.9,3.7,27.9,6.3,41.8
			c0.6,3-0.9,3.7-3.6,3.7C619.8,861.9,611.3,861.9,602.8,861.9z"/>
		<path class="st3" d="M557.6,861.2c-15.7-1.4-31.4-2.9-47.1-4.3c-2.2-0.2-3.1-1.2-3.5-3.3c-3.2-15.6-6.5-31.1-9.8-46.7
			c-0.8-4,0.4-5.5,4.6-4.9c17.4,2.4,34.9,4,52.5,4.9c2.5,0.1,3.4,1.2,3.7,3.6c1.7,15.2,4.3,30.2,7.3,45.1c1,5-0.3,6-4.7,5.4
			c-1-0.1-2,0-3,0C557.6,861.1,557.6,861.1,557.6,861.2z"/>
		<path class="st34" d="M731.8,762.5c0,4.8,0,9.7,0,14.5c0,2.4-0.9,3.4-3.3,4.1c-13.4,3.8-27,6.8-40.7,9.7c-3.5,0.7-4.7-0.6-4.9-4.1
			c-1.2-17.1-2.5-34.1-3.9-51.1c-0.3-3.9,0.8-5.7,4.7-6.3c14.6-2.2,28.9-6.1,43-10.4c3.7-1.1,4.3,0,4.2,3.3c-0.1,13.5,0,26.9,0,40.4
			C731.2,762.5,731.5,762.5,731.8,762.5z"/>
		<path class="st3" d="M431,723.9c-0.4-2.3,0.7-3.1,3.4-2.7c13.8,2,27.5,3.9,41.4,5.6c2.6,0.3,3.3,1.3,3.5,3.7
			c1.1,10.9,2.4,21.7,3.7,32.6c1.1,8.4,2.2,16.7,3.7,25.1c0.7,3.9,0,5.1-4.2,4.5c-11.3-1.8-22.6-3.3-34-4.7c-4-0.5-6.5-1.7-7.3-6.4
			c-3.1-18.4-6.7-36.8-10.1-55.2C431,725.7,431,725,431,723.9z"/>
		<path class="st3" d="M626.1,746.1c-0.2-10.5-0.2-10.7,7.7-10.9c10.8-0.3,21.5-1.4,32.2-3.1c4.1-0.6,6,0,6.3,5.1
			c0.8,15.4,1.5,30.8,3.5,46.1c0.2,1.8,0,3.7,0.3,5.5c0.5,3-0.8,4.1-3.6,4.5c-12.4,2-25,3.3-37.5,4.6c-3.2,0.3-4.6-1-4.8-4.1
			C628.7,777,627.2,760.2,626.1,746.1z"/>
		<path class="st3" d="M434.1,781.7c0.5,2.9-1.2,3.6-3.6,3.2c-11.4-2.2-22.7-4.5-34.1-6.6c-2.4-0.4-3.2-1.7-3.5-4
			c-2.2-14.2-4.6-28.4-6.8-42.7c-0.8-5.4-1.4-10.8-2-16.3c-0.3-2.6,0.4-3.5,3.4-2.8c10.8,2.4,21.7,4.5,32.6,6.4
			c3.5,0.6,3.4,3.3,3.8,5.6c2.2,12.6,4.1,25.2,6.3,37.7C431.2,768.8,432.7,775.2,434.1,781.7z"/>
		<path class="st3" d="M643.2,861.3c-2.2,0.6-4.1-0.6-4.6-5.5c-1.8-15.1-4.3-30.2-6.6-45.2c-0.6-3.8,0.3-5.4,4.7-5.8
			c12-0.9,24.1-2.3,36-4.2c4.1-0.6,4.7,0.9,5,3.8c1.1,9,2.1,18.1,3.1,27.2c0.8,6.8,1.2,13.6,2.4,20.2c0.6,3.2-0.3,4-3.1,4.5
			C668.6,858.4,657,859.8,643.2,861.3z"/>
		<path class="st3" d="M731.1,808.7c0.5,10.6-1.3,21.2-1.1,31.8c0,2.5-0.8,3.7-3.4,4.5c-10.3,3-20.8,5.5-31.2,8.3
			c-4,1.1-4.8-0.7-5.1-3.7c-1.1-8.5-2.2-17.1-3.1-25.6c-0.8-7.2-1.4-14.5-2.2-21.8c-0.3-2.6,0.6-3.9,3.4-4.4
			c12.9-2.4,25.7-5.1,38.2-8.9c3.7-1.1,5-0.3,4.7,3.7C730.8,798.1,731.1,803.4,731.1,808.7z"/>
		<path class="st3" d="M444.9,797.5c-0.8-3.8,2-2.7,3.3-2.5c10.3,1.4,20.7,2.9,31,4.4c0.2,0,0.3,0.1,0.5,0.1
			c8.9,1.6,9,1.6,10.8,10.6c2.9,13.9,5.6,27.9,8.7,41.8c0.7,3.3,0.2,3.4-2.9,3.1c-12-1.3-24-3.1-35.9-5.1c-2.1-0.3-3.4-0.9-3.9-3
			c-4.1-16.2-8.2-32.4-11.6-48.9C444.9,797.9,444.9,797.6,444.9,797.5z"/>
		<path class="st3" d="M448.8,846c0.1,2.1-1.4,2-2.7,1.7c-12.2-2.4-24.4-4.7-36.6-7.2c-1.9-0.4-3.1-1.5-3.5-3.6
			c-3.5-16.2-7.1-32.4-10.6-48.6c-0.5-2.1-0.5-3.6,2.6-2.9c11.7,2.5,23.3,4.9,35,7.2c2.1,0.4,3.5,0.9,4,3.5
			c3.5,15.9,7.3,31.6,11,47.5C448.3,844.4,448.6,845.2,448.8,846z"/>
		<path class="st35" d="M587.6,663.3c11.1-5.2,32.1-1.6,46.2,5.7c-4.9-1.2-9.8-2.4-14.8-3.6c-5.1-1.2-10.2-2.7-15.6-2.6
			C598.2,663.1,592.9,662.7,587.6,663.3z"/>
		<path class="st24" d="M655,594.9c-3.4,0-6.7,0-10.1,0C648.3,593.5,651.7,593.6,655,594.9z"/>
	</g>
</g>
</svg>
